<svg xmlns="http://www.w3.org/2000/svg" version="1.0" preserveAspectRatio="xMidYMid meet" viewBox="65.51 127.11 224.49 188.89">

<g transform="translate(0.000000,443.000000) scale(0.100000,-0.100000)" fill="#000000" stroke="none">
<path d="M1194 3145 c-4 -9 -1 -23 7 -30 18 -17 528 -335 539 -335 4 0 136 56 293 125 157 69 288 125 291 125 3 0 6 -28 6 -62 l0 -63 -86 -17 c-154 -30 -358 -146 -390 -224 -33 -78 -6 -157 65 -193 22 -12 42 -25 46 -30 3 -6 -6 -51 -20 -100 -14 -49 -25 -97 -25 -105 0 -8 14 -23 31 -33 17 -10 40 -34 50 -53 11 -19 32 -55 48 -80 l28 -45 64 1 c47 0 80 7 123 27 32 15 60 27 62 27 2 0 4 -26 4 -58 0 -43 -5 -63 -17 -75 -10 -8 -138 -83 -285 -165 l-268 -150 0 491 c0 310 -4 506 -11 529 -5 21 -20 49 -32 63 -34 38 -608 386 -632 383 -19 -3 -20 -9 -20 -192 l0 -190 65 -15 c106 -26 173 -80 201 -160 10 -29 9 -35 -12 -57 -34 -36 -39 -142 -10 -198 12 -22 17 -44 12 -50 -4 -6 -13 -37 -20 -69 -7 -34 -19 -61 -29 -66 -9 -5 -57 -11 -105 -13 -100 -5 -107 -10 -107 -76 0 -94 -2 -93 330 -278 218 -122 305 -176 315 -194 42 -82 59 -77 440 119 182 94 352 178 379 186 63 19 136 19 162 0 28 -19 48 -69 40 -100 -9 -34 -67 -90 -126 -120 -127 -65 -784 -295 -841 -295 -19 0 -91 45 -235 147 -311 220 -392 268 -509 305 -128 39 -203 77 -257 129 -56 54 -36 61 41 14 119 -73 193 -64 207 27 12 70 -12 117 -103 208 -98 97 -135 164 -141 253 -6 76 12 137 55 187 35 40 102 81 154 93 33 8 43 31 23 51 -12 13 -20 13 -62 -1 -203 -68 -286 -269 -193 -468 23 -50 52 -88 115 -151 66 -65 87 -92 92 -121 14 -76 -25 -85 -119 -27 -96 59 -141 63 -167 14 -37 -70 140 -212 325 -260 100 -26 184 -75 460 -270 249 -176 272 -190 316 -190 38 0 518 158 699 230 212 84 295 143 320 227 16 54 0 110 -45 153 -31 30 -42 35 -100 38 -94 6 -157 -19 -530 -212 -280 -145 -346 -173 -345 -147 0 3 134 80 297 171 222 124 300 172 314 195 15 24 19 50 19 136 0 125 -6 132 -71 88 -54 -36 -140 -69 -178 -69 -24 0 -34 9 -63 58 -19 31 -38 65 -41 75 -4 9 -17 22 -30 28 l-23 11 23 86 c27 104 21 143 -30 168 -73 37 -93 79 -66 138 13 28 97 90 176 129 55 28 183 67 220 67 l23 0 0 -190 c0 -218 14 -307 63 -410 33 -71 133 -180 164 -180 10 0 51 15 90 34 88 43 175 127 220 216 l33 63 -22 36 c-50 84 -211 310 -257 362 -50 56 -138 111 -198 124 l-33 7 0 99 c0 80 -3 101 -15 106 -9 3 -150 -53 -318 -127 -166 -73 -306 -133 -312 -133 -5 0 -120 69 -255 153 -135 85 -255 155 -267 158 -15 3 -25 -2 -29 -13z m223 -305 c204 -125 256 -161 268 -186 13 -28 15 -101 13 -528 l-3 -495 -271 152 c-149 84 -278 158 -288 166 -9 8 -16 28 -16 47 l0 34 73 0 c55 0 80 5 105 20 32 20 62 71 62 106 0 9 9 36 21 59 l21 41 -26 39 c-36 52 -36 121 -1 163 14 17 25 40 25 53 0 43 -46 124 -95 167 -43 38 -135 82 -170 82 -12 0 -15 23 -15 131 l0 131 23 -14 c12 -8 136 -84 274 -168z m1077 -39 c58 -31 127 -113 255 -304 l85 -128 -20 -36 c-43 -82 -143 -171 -226 -202 -24 -9 -32 -7 -62 19 -45 40 -104 155 -121 237 -10 45 -15 132 -15 261 l0 192 28 -6 c15 -4 49 -18 76 -33z"/>
</g>
</svg>